<?xml version="1.0" encoding="utf-8"?>
<!-- Generator: Adobe Illustrator 18.0.0, SVG Export Plug-In . SVG Version: 6.00 Build 0)  -->
<!DOCTYPE svg PUBLIC "-//W3C//DTD SVG 1.1//EN" "http://www.w3.org/Graphics/SVG/1.1/DTD/svg11.dtd">
<svg version="1.1" id="Layer_1" xmlns="http://www.w3.org/2000/svg" xmlns:xlink="http://www.w3.org/1999/xlink" x="0px" y="0px"
	 viewBox="0 0 148 160.5" enable-background="new 0 0 148 160.5" xml:space="preserve">
<g>
	<g>
		<polygon fill="#3D3D3D" points="57,47.2 30.3,79.6 8.9,64.6 		"/>
		<polygon fill="#464545" points="57,47.2 53.6,33.4 8.9,64.6 		"/>
		<polygon fill="#3D3D3D" points="53.6,33.4 43.1,40.7 36.6,26 		"/>
		<polygon fill="#464545" points="36.6,26 32.4,27.9 43.1,40.7 		"/>
		<polygon fill="#545454" points="32.4,27.9 24.7,40.7 43.1,40.7 		"/>
		<polygon fill="#464545" points="24.7,40.7 8.9,64.6 43.1,40.7 		"/>
		<polygon fill="#464545" points="8.9,64.6 0,48.2 6,40 		"/>
		<polygon fill="#3D3D3D" points="0,48.2 0.8,56.5 8.9,64.6 		"/>
		<polygon fill="#C4422D" points="6,40 0,48.2 1.3,44.5 		"/>
		<polygon fill="#464545" points="6,40 24.7,40.7 32.4,27.9 		"/>
		<polygon fill="#464545" points="30.3,79.6 43.4,107.3 57,47.2 		"/>
		<polygon fill="#545454" points="53.6,33.4 43.1,40.7 53,15.7 		"/>
		<polygon fill="#545454" points="52.7,0 53,15.7 57.2,13.8 		"/>
		<polygon fill="#171717" points="57.2,13.8 53.6,33.4 53,15.7 		"/>
		<polygon fill="#3D3D3D" points="25.4,4.3 25.4,20.6 30,18.9 		"/>
		<polygon fill="#545454" points="25.4,20.6 29.6,29.1 30,18.9 		"/>
		<polygon fill="#171717" points="30,18.9 29.6,29.1 32.4,27.9 36.6,26 		"/>
		<polygon fill="#3D3D3D" points="6,40 8.9,64.6 24.7,40.7 		"/>
		<polygon fill="#343434" points="28.5,34.3 33.9,34.5 27.9,35.5 		"/>
		<polygon fill="#C4422D" points="33.9,34.5 30.4,35 27.9,35.5 24.7,40.7 27.5,37.9 		"/>
		<polygon fill="#3D3D3D" points="64.3,48.1 57,47.2 43.4,107.3 64.3,79.7 		"/>
		<polygon fill="#545454" points="64.3,79.7 43.4,107.3 64.3,99.2 		"/>
		<polygon fill="#464545" points="64.3,100.4 64.3,99.2 43.4,107.3 62.4,101 		"/>
		<polygon fill="#3D3D3D" points="43.4,107.3 58,115.2 62.4,101 		"/>
		<polygon fill="#3D3D3D" points="62.4,101 43.4,107.3 62.4,101 		"/>
		<polygon fill="#464545" points="62.4,101 62.4,101 58,115.2 64.3,115.6 64.3,103.3 		"/>
		<polygon fill="#464545" points="62.4,101 62.4,101 62.4,101 		"/>
		<polygon fill="#464545" points="62.4,101 62.4,101 64.3,103.3 64.3,102.3 		"/>
		<polygon fill="#464545" points="62.4,101 62.4,101 62.4,101 		"/>
		<polygon fill="#545454" points="64.3,102.3 64.3,100.4 62.4,101 		"/>
		<rect x="63.3" y="99.7" fill="#545454" width="0" height="2"/>
	</g>
	<g>
		<polygon fill="#3D3D3D" points="57,47.2 30.3,79.6 8.9,64.6 		"/>
		<polygon fill="#464545" points="57,47.2 53.6,33.4 8.9,64.6 		"/>
		<polygon fill="#3D3D3D" points="53.6,33.4 43.1,40.7 36.6,26 		"/>
		<polygon fill="#464545" points="36.6,26 32.4,27.9 43.1,40.7 		"/>
		<polygon fill="#545454" points="32.4,27.9 24.7,40.7 43.1,40.7 		"/>
		<polygon fill="#464545" points="24.7,40.7 8.9,64.6 43.1,40.7 		"/>
		<polygon fill="#464545" points="8.9,64.6 0,48.2 6,40 		"/>
		<polygon fill="#3D3D3D" points="0,48.2 0.8,56.5 8.9,64.6 		"/>
		<polygon fill="#C4422D" points="6,40 0,48.2 1.3,44.5 		"/>
		<polygon fill="#464545" points="6,40 24.7,40.7 32.4,27.9 		"/>
		<polygon fill="#464545" points="30.3,79.6 43.4,107.3 57,47.2 		"/>
		<polygon fill="#545454" points="53.6,33.4 43.1,40.7 53,15.7 		"/>
		<polygon fill="#545454" points="52.7,0 53,15.7 57.2,13.8 		"/>
		<polygon fill="#171717" points="57.2,13.8 53.6,33.4 53,15.7 		"/>
		<polygon fill="#3D3D3D" points="25.4,4.3 25.4,20.6 30,18.9 		"/>
		<polygon fill="#545454" points="25.4,20.6 29.6,29.1 30,18.9 		"/>
		<polygon fill="#171717" points="30,18.9 29.6,29.1 32.4,27.9 36.6,26 		"/>
		<polygon fill="#3D3D3D" points="6,40 8.9,64.6 24.7,40.7 		"/>
		<polygon fill="#343434" points="28.5,34.3 33.9,34.5 27.9,35.5 		"/>
		<polygon fill="#C4422D" points="33.9,34.5 30.4,35 27.9,35.5 24.7,40.7 27.5,37.9 		"/>
		<polygon fill="#3D3D3D" points="64.3,48.1 57,47.2 43.4,107.3 64.3,79.7 		"/>
		<polygon fill="#545454" points="64.3,79.7 43.4,107.3 64.3,99.2 		"/>
		<polygon fill="#464545" points="64.3,100.4 64.3,99.2 43.4,107.3 62.4,101 		"/>
		<polygon fill="#3D3D3D" points="43.4,107.3 58,115.2 62.4,101 		"/>
		<polygon fill="#3D3D3D" points="62.4,101 43.4,107.3 62.4,101 		"/>
		<polygon fill="#464545" points="62.4,101 62.4,101 58,115.2 64.3,115.6 64.3,103.3 		"/>
		<polygon fill="#464545" points="62.4,101 62.4,101 62.4,101 		"/>
		<polygon fill="#464545" points="62.4,101 62.4,101 64.3,103.3 64.3,102.3 		"/>
		<polygon fill="#464545" points="62.4,101 62.4,101 62.4,101 		"/>
		<polygon fill="#545454" points="64.3,102.3 64.3,100.4 62.4,101 		"/>
		<rect x="63.3" y="99.7" fill="#545454" width="0" height="2"/>
	</g>
	<g>
		<path fill="#C4422D" d="M71.9,49.1h7.6v67.1h-7.6V49.1z"/>
		<path fill="#C4422D" d="M86.6,49.1h49.5v6.7l-20.8,0v60.4h-7.6V55.8H86.6V49.1z"/>
	</g>
	<g>
		<path fill="#C4422D" d="M50.8,132.1c0,6.8-2.2,9.1-9.3,9.1c-2.8,0-8.6-0.8-8.6-0.8v-22.7h7.6v6.3c0,0,2.2-0.5,3.5-0.5
			C49.1,123.5,50.8,127,50.8,132.1z M43.2,132.2c0-2.2-0.5-2.7-1.5-2.7c-0.3,0-1.1,0.2-1.1,0.2v5.3c0,0,0.4,0.1,1.1,0.1
			C42.9,135.2,43.2,133.8,43.2,132.2z"/>
		<path fill="#C4422D" d="M70.1,123.9v16.8h-7.6V140c0,0-2.2,1.2-3.9,1.2c-4.9,0-6.5-2.8-6.5-8.6v-8.7h7.6v8.2c0,2,0.3,2.6,1.2,2.6
			c0.7,0,1.5-0.2,1.5-0.2v-10.6H70.1z"/>
		<path fill="#C4422D" d="M72,117.8h7.6v23H72V117.8z"/>
		<path fill="#C4422D" d="M81.5,117.8h7.6v23h-7.6V117.8z"/>
		<path fill="#C4422D" d="M105.7,129.6c0,0-4.2-0.5-6.2-0.5c-0.8,0-1.1,0.1-1.1,0.3c0,0.2,0.3,0.2,2.2,0.4c4.2,0.4,5.6,1.8,5.6,5.5
			c0,4.3-2.6,5.9-7.6,5.9c-4.8,0-7.8-0.9-7.8-0.9l0.2-5c0,0,4.2,0.6,6.4,0.6c0.8,0,1.2-0.1,1.2-0.3c0-0.2-0.4-0.2-2.5-0.5
			c-3.8-0.5-5.3-1.9-5.3-5.4c0-4.8,3.2-6.1,7.6-6.1c4.4,0,7.6,0.9,7.6,0.9L105.7,129.6z"/>
		<path fill="#C4422D" d="M107.7,140.8v-23h7.6v6.3c0,0,2.4-0.6,3.6-0.6c4.9,0,6.7,2.2,6.7,8.6v8.7H118v-7.9c0-2-0.4-2.9-1.3-2.9
			c-0.6,0-1.4,0.2-1.4,0.2v10.6H107.7z"/>
		<path fill="#C4422D" d="M127.3,117.8h7.7v5.1h-7.7V117.8z M127.4,123.9h7.6v16.8h-7.6V123.9z"/>
		<path fill="#C4422D" d="M145.2,133.4c0,1.1,0.2,1.4,1.1,1.4c0.7,0,1.5,0,1.5,0l0.1,5.8c0,0-2.9,0.6-4.5,0.6c-4.1,0-5.9-1.3-5.9-6
			V130h-1.3v-6h1.3v-3.3h7.6v3.3h2.8v6h-2.8V133.4z"/>
	</g>
	<g>
		<path fill="#C4422D" stroke="#C4422D" stroke-miterlimit="10" d="M32.8,157.1c0-1.2,0.6-1.6,1.6-2.3c-0.3-0.2-0.4-0.6-0.4-1.2
			c0-0.3,0.6-1.4,0.6-1.4c-0.9-0.3-1.6-1-1.6-2.8c0-2.2,1.2-3.1,3.2-3.1c1,0,2,0.2,2,0.2l2.6-0.1v0.6h-2c0.5,0.4,0.7,1,0.7,2.2
			c0,2.2-1.1,3-3.4,3c-0.1,0-0.8,0-1-0.1c0,0-0.4,1-0.4,1.3c0,0.9,0.1,1,2.6,1c2.3,0,3.3,0.4,3.3,2.6c0,2-1.2,2.8-4,2.8
			C33.4,160,32.8,159.3,32.8,157.1z M34.9,155.1c-1.1,0.7-1.4,1.1-1.4,2c0,1.7,0.5,2.3,3,2.3c2.3,0,3.3-0.7,3.3-2.2
			c0-1.8-0.8-2-2.6-2C36.4,155.1,34.9,155.1,34.9,155.1z M38.8,149.4c0-1.8-0.7-2.5-2.6-2.5c-1.8,0-2.5,0.6-2.5,2.5
			c0,1.8,0.7,2.4,2.5,2.4C38.1,151.8,38.8,151.2,38.8,149.4z"/>
		<path fill="#C4422D" stroke="#C4422D" stroke-miterlimit="10" d="M49.1,155.1l0,0.6c0,0-2.1,0.2-3.5,0.2c-2.8,0-3.5-1.8-3.5-4.7
			c0-3.6,1.6-4.7,3.8-4.7c2.3,0,3.5,1.2,3.5,4.4v0.6h-6.6c0,2.5,0.7,3.9,2.8,3.9C47,155.2,49.1,155.1,49.1,155.1z M48.8,150.7
			c0-2.8-0.9-3.8-2.9-3.8c-1.9,0-3.1,1-3.1,3.8H48.8z"/>
		<path fill="#C4422D" stroke="#C4422D" stroke-miterlimit="10" d="M51.9,155.6v-9.1h0.7v0.7c0,0,1.7-0.9,3.3-0.9
			c2.5,0,3.1,1,3.1,4.5v4.7h-0.7v-4.7c0-3.1-0.3-4-2.4-4c-1.7,0-3.3,0.9-3.3,0.9v7.8H51.9z"/>
		<path fill="#C4422D" stroke="#C4422D" stroke-miterlimit="10" d="M68.3,155.1l0,0.6c0,0-2.1,0.2-3.5,0.2c-2.8,0-3.5-1.8-3.5-4.7
			c0-3.6,1.6-4.7,3.8-4.7c2.3,0,3.5,1.2,3.5,4.4v0.6h-6.6c0,2.5,0.7,3.9,2.8,3.9C66.2,155.2,68.3,155.1,68.3,155.1z M68,150.7
			c0-2.8-0.9-3.8-2.9-3.8c-1.9,0-3.1,1-3.1,3.8H68z"/>
		<path fill="#C4422D" stroke="#C4422D" stroke-miterlimit="10" d="M71.1,146.5h0.7v1.4c0,0,1.6-1.2,3.7-1.6v0.7
			c-1.8,0.4-3.7,1.6-3.7,1.6v7.1h-0.7V146.5z"/>
		<path fill="#C4422D" stroke="#C4422D" stroke-miterlimit="10" d="M83.5,154.4c0.1,0.5,0.7,0.7,1.4,0.8l0,0.6
			c-0.8,0-1.5-0.2-1.9-0.8c0,0-1.9,0.8-3.8,0.8c-1.5,0-2.4-0.9-2.4-2.7c0-1.6,0.7-2.4,2.6-2.6l3.5-0.4v-0.9c0-1.6-0.7-2.2-2.1-2.2
			c-1.4,0-3.5,0.3-3.5,0.3l-0.1-0.6c0,0,2.1-0.3,3.6-0.3c1.9,0,2.7,1,2.7,2.8V154.4z M79.3,151.1c-1.5,0.1-2,0.8-2,2.1
			c0,1.3,0.6,2.1,1.8,2.1c1.8,0,3.7-0.7,3.7-0.7v-3.7L79.3,151.1z"/>
		<path fill="#C4422D" stroke="#C4422D" stroke-miterlimit="10" d="M87.7,147.1v4.8c0,2.7,0.2,3.4,1.7,3.4c0.5,0,1.8-0.1,1.8-0.1
			l0.1,0.6c0,0-1.2,0.1-1.9,0.1c-1.7,0-2.4-0.6-2.4-3.3v-5.5h-1.5v-0.6H87v-3h0.7v3h3.4v0.6H87.7z"/>
		<path fill="#C4422D" stroke="#C4422D" stroke-miterlimit="10" d="M100.1,150.9c0,3.7-0.7,4.9-3.8,4.9s-3.8-1.2-3.8-4.9
			c0-3.4,1-4.6,3.8-4.6S100.1,147.5,100.1,150.9z M99.4,150.9c0-3.1-0.7-4-3.1-4s-3.1,0.9-3.1,4c0,3.1,0.3,4.3,3.1,4.3
			S99.4,154,99.4,150.9z"/>
		<path fill="#C4422D" stroke="#C4422D" stroke-miterlimit="10" d="M102.7,146.5h0.7v1.4c0,0,1.6-1.2,3.7-1.6v0.7
			c-1.8,0.4-3.7,1.6-3.7,1.6v7.1h-0.7V146.5z"/>
	</g>
</g>
</svg>
